<svg width="202" height="114" viewBox="0 0 202 114" fill="none" xmlns="http://www.w3.org/2000/svg">
<path fill-rule="evenodd" clip-rule="evenodd" d="M33.4449 24.187C34.5167 22.2889 35.7673 20.5025 37.1666 18.8396C30.6834 6.20737 16.0644 1.01257 3.15744 6.90182C2.04092 7.41393 0.716005 6.91896 0.202406 5.79798C-0.311194 4.677 0.187504 3.35134 1.30403 2.83923C15.9453 -3.84274 32.4922 1.63414 40.3972 15.4387C41.7146 14.2165 43.1066 13.0836 44.5729 12.046C59.4524 1.49715 81.3809 4.8765 98.1808 20.6491C102.625 24.816 105.55 32.3368 107.299 41.1737C109.763 53.5655 110.031 68.5796 109.852 79.6592C111.825 74.7517 114.117 70.0155 116.596 65.2859C117.398 63.7527 118.199 62.2133 119.002 60.6707C128.853 41.733 138.955 22.3141 155.116 7.97445C156.039 7.15642 157.453 7.24054 158.272 8.16203C159.091 9.08428 159.001 10.4963 158.078 11.3143C142.487 25.1518 132.752 43.8848 123.247 62.178C122.347 63.9097 121.449 65.6374 120.548 67.3567C117.281 73.61 114.326 79.8699 112.048 86.5503C111.936 86.8773 111.824 87.204 111.712 87.5305C111.143 89.1873 110.575 90.842 110.09 92.5289C110.035 92.7233 110.061 92.9866 110.089 93.2607C110.102 93.3918 110.115 93.5254 110.12 93.6551C110.135 94.3332 110.098 94.9681 109.979 95.4252C109.741 96.3199 109.219 96.8945 108.594 97.222C108.125 97.4677 107.552 97.609 106.83 97.4751C106.317 97.3783 105.572 97.1178 105.155 96.1271C105.081 95.9477 104.917 95.0485 104.954 93.5323C104.976 92.7829 105.014 91.7983 105.061 90.6136C105.371 82.6893 106.032 65.8123 104.225 50.4929C102.907 39.2704 100.399 28.8577 95.1215 23.9049C80.0633 9.76681 60.4945 6.23417 47.1558 15.6896C45.4215 16.9207 43.7913 18.3007 42.3026 19.8184C42.8535 22.4504 42.98 26.8197 41.8932 29.71C41.2828 31.329 40.3004 32.5274 39.0647 33.1422C37.777 33.7846 36.1022 33.9148 34.0106 32.8519C32.7005 32.188 32.0456 31.0625 31.9041 29.6788C31.718 27.8321 32.8196 25.2819 33.4449 24.187ZM37.3304 26.3873C37.6431 25.8372 37.9705 25.2983 38.3129 24.7706C38.2608 25.9645 38.0747 27.1681 37.71 28.135C37.7025 28.1549 37.695 28.1748 37.6875 28.1946C37.5328 28.6061 37.3898 28.9866 37.0773 29.1436C36.8763 29.2426 36.6531 29.1741 36.3777 29.0431C36.4074 28.8034 36.467 28.4111 36.5414 28.1618C36.7721 27.4442 37.1071 26.7729 37.3304 26.3873Z" fill="#C8BCFF"/>
<path d="M121.59 30.2829C123.994 22.0542 128.721 15.6164 135.964 10.968C136.998 10.3025 137.303 8.91953 136.633 7.88266C135.971 6.84504 134.586 6.54359 133.552 7.20978C125.364 12.4626 120.02 19.7326 117.303 29.0317C116.96 30.2145 117.638 31.4553 118.821 31.8007C120.005 32.146 121.248 31.4657 121.59 30.2829Z" fill="#C8BCFF"/>
<path fill-rule="evenodd" clip-rule="evenodd" d="M183.996 45.117C183.959 44.3302 183.967 43.5643 184.004 42.8452C184.13 40.6829 186.14 40.6904 186.296 40.6934C186.624 40.7008 188.083 40.7931 188.433 42.479C188.455 42.5795 188.507 43.3075 188.522 43.5881C188.552 44.1865 188.567 44.7746 188.485 45.3649C188.559 46.366 188.723 47.3962 189.036 48.3653C189.49 49.7959 190.227 51.1164 191.559 51.8198C193.389 52.7918 195.662 52.9868 197.805 53.1708C198.452 53.2263 199.087 53.2808 199.695 53.3554C200.789 53.4894 201.622 54.4019 201.66 55.5035C201.689 56.6059 200.915 57.5676 199.829 57.7678C196.553 58.3737 192.787 61.3519 190.39 63.7502C190.003 64.1375 189.591 64.8061 189.153 65.5165C188.758 66.1577 188.342 66.8329 187.904 67.3662C187.16 68.2668 186.334 68.8705 185.552 69.1102C185.247 69.2032 183.557 69.5426 182.798 67.7934C182.59 67.3022 181.853 64.7297 181.786 64.4364C181.384 62.7557 180.811 61.2543 179.687 59.9175C178.712 58.7586 177.528 57.7463 176.106 57.185C175.578 56.9765 175.031 56.8142 174.483 56.6513L174.342 56.6097C174.134 56.5843 173.546 56.5099 173.337 56.4392C172.913 56.2978 172.6 56.076 172.377 55.8549C171.953 55.4366 171.737 54.9371 171.7 54.3684C171.67 53.9933 171.722 53.5482 171.99 53.0547C172.191 52.7041 172.645 52.1763 173.464 51.8339C174.111 51.5631 175.321 51.3026 176.013 51.1533C176.237 51.1053 176.406 51.0687 176.486 51.0472C178.764 50.4338 180.997 49.5012 182.746 47.8845C183.617 47.0761 183.818 46.2045 183.996 45.117ZM185.455 51.4469C186.334 53.2676 187.644 54.8002 189.467 55.7656C190.219 56.1668 191.038 56.4712 191.886 56.7079C190.137 57.9257 188.515 59.3101 187.227 60.5934C186.81 61.011 186.356 61.6868 185.872 62.4289C185.306 60.4475 184.473 58.6678 183.103 57.0392C182.292 56.079 181.376 55.2014 180.356 54.4697C182.202 53.7387 183.952 52.7607 185.455 51.4469Z" fill="#C8BCFF"/>
<path d="M145.497 108.497C159.837 108.678 174.274 108.86 187.919 113.739C189.081 114.156 190.361 113.545 190.778 112.392C191.194 111.23 190.584 109.95 189.423 109.533C175.225 104.456 160.205 104.244 145.294 104.033C142.717 103.996 140.144 103.96 137.579 103.899C136.344 103.869 135.324 104.844 135.294 106.072C135.264 107.308 136.239 108.327 137.467 108.365C140.137 108.429 142.816 108.463 145.497 108.497Z" fill="#C8BCFF"/>
<path d="M154.103 73.3768C147.181 75.1692 141.457 78.7889 136.209 83.616C135.301 84.4504 133.887 84.3909 133.053 83.4835C132.22 82.5761 132.279 81.1627 133.187 80.3283C138.986 74.9943 145.328 71.0344 152.979 69.0537C154.178 68.7448 155.391 69.4623 155.704 70.6555C156.009 71.8486 155.294 73.0679 154.103 73.3768Z" fill="#C8BCFF"/>
</svg>
