<svg width="260" height="357" viewBox="0 0 260 357" fill="none" xmlns="http://www.w3.org/2000/svg">
<path fill-rule="evenodd" clip-rule="evenodd" d="M80.3662 156.233C71.7588 151.538 61.8088 150.127 50.6391 153.395C16.0866 163.506 2.10895 190.563 0.221762 222.638C-2.53231 269.472 20.8811 327.108 41.809 355.754C42.7986 357.112 44.7014 357.403 46.0515 356.414C47.4094 355.424 47.7083 353.521 46.7187 352.164C26.4045 324.362 3.62036 268.445 6.29005 222.991C8.02381 193.54 20.6128 168.515 52.3498 159.233C61.7934 156.463 70.1861 157.683 77.474 161.634C74.9654 166.436 72.6255 171.246 70.4622 176.056C64.4937 189.336 55.5719 226.205 58.9013 253.316C61.2948 272.763 69.9712 287.178 88.9352 286.672C99.4759 286.388 107.101 279.821 111.765 269.373C118.187 255.012 118.908 233.01 114.389 211.928C110.63 194.376 103.266 177.491 92.817 166.16C90.5156 163.675 88.0758 161.442 85.4905 159.524C121.547 93.5799 188.527 31.9163 257.31 5.90991C258.874 5.31153 259.672 3.56253 259.074 1.98987C258.483 0.417213 256.726 -0.372998 255.161 0.217709C185.258 26.6537 117.166 89.215 80.3662 156.233ZM82.583 164.979C80.2355 169.497 78.0416 174.023 76.0086 178.55C70.2934 191.277 61.7472 226.596 64.9385 252.572C66.8948 268.513 73.2317 281.01 88.7741 280.596C96.9366 280.374 102.598 274.981 106.219 266.895C110.193 257.996 111.712 245.944 111.075 233.094C110.108 213.585 104.148 192.243 93.776 177.138C90.4926 172.351 86.7563 168.201 82.583 164.979Z" fill="white"/>
<path fill-rule="evenodd" clip-rule="evenodd" d="M202.959 105.423C209.081 69.6741 232.448 31.608 257.634 5.24873C258.792 4.03663 258.746 2.11101 257.534 0.952611C256.322 -0.205788 254.396 -0.16734 253.238 1.04476C227.262 28.2249 203.281 67.5414 196.967 104.395C196.684 106.045 197.796 107.617 199.453 107.901C201.102 108.185 202.675 107.073 202.959 105.423Z" fill="white"/>
<path fill-rule="evenodd" clip-rule="evenodd" d="M252.846 0.403332C226.625 15.3781 186.403 17.4495 157.083 9.86236C155.456 9.44043 153.792 10.4148 153.377 12.0411C152.955 13.6675 153.929 15.3244 155.556 15.7464C186.273 23.694 228.389 21.3697 255.861 5.68143C257.318 4.85291 257.825 2.98861 256.997 1.53102C256.16 0.0734343 254.304 -0.432863 252.846 0.403332Z" fill="white"/>
</svg>
