<svg width="77" height="72" viewBox="0 0 77 72" fill="none" xmlns="http://www.w3.org/2000/svg">
<path fill-rule="evenodd" clip-rule="evenodd" d="M2.11547 0.910588C7.40492 37.1155 39.8903 54.7014 73.8034 58.7C74.3858 58.7698 74.8045 59.2985 74.7347 59.8808C74.6649 60.4632 74.1363 60.8818 73.5539 60.8121C38.6908 56.7034 5.44859 38.4359 0.0115427 1.21649C-0.0743337 0.636828 0.328238 0.0974191 0.910587 0.0115427C1.49025 -0.0743337 2.0296 0.328238 2.11547 0.910588Z" fill="#FFCB3C"/>
<path fill-rule="evenodd" clip-rule="evenodd" d="M73.0421 59.6815C71.5339 58.5786 69.6259 57.2153 69.4139 57.0542C63.6682 52.6907 58.9074 47.6696 54.7156 41.779C54.3748 41.3013 54.4875 40.6358 54.9652 40.2949C55.4429 39.9541 56.1084 40.0669 56.4492 40.5446C60.5122 46.258 65.128 51.1288 70.702 55.3609C71.0267 55.6078 75.3179 58.6698 76.1391 59.3541C76.4772 59.6332 76.5818 59.8962 76.6006 59.9606C76.7133 60.2988 76.6462 60.5645 76.555 60.7577C76.4503 60.975 76.1901 61.2917 75.6856 61.4528C75.1569 61.6191 73.9814 61.6943 73.6862 61.7372C69.234 62.3974 64.2076 62.7463 59.632 64.013C55.2684 65.2206 51.3101 67.2655 48.7713 71.3634C48.4627 71.8626 47.8052 72.0155 47.3061 71.7069C46.8069 71.3983 46.6539 70.7408 46.9625 70.2417C49.8018 65.6607 54.187 63.3125 59.0631 61.9626C63.6119 60.704 68.5927 60.3229 73.0421 59.6815Z" fill="#FFCB3C"/>
</svg>
