<svg width="220" height="207" viewBox="0 0 220 207" fill="none" xmlns="http://www.w3.org/2000/svg">
<path d="M214.9 0L120.501 70.1031L138.055 28.7894L214.9 0Z" fill="#E17726"/>
<path d="M5.32039 0.0828L81.9603 28.7946L98.6287 70.65L5.32039 0.0828ZM176.911 149.09L218.634 149.887L204.053 199.603L153.141 185.535L176.911 149.09ZM43.0882 149.09L66.77 185.535L15.944 199.604L1.45062 149.887L43.0882 149.09Z" fill="#E27625"/>
<path d="M96.3626 59.9886L98.0676 115.26L47.0456 112.931L61.5588 90.9558L61.7427 90.7445L96.3626 59.9886ZM123.109 59.3719L158.257 90.7462L158.44 90.9567L172.953 112.931L121.942 115.26L123.109 59.3719ZM68.2645 149.25L96.1237 171.036L63.7613 186.717L68.2645 149.25ZM151.741 149.247L156.15 186.718L123.878 171.035L151.741 149.247Z" fill="#E27625"/>
<path d="M124.59 168.983L157.339 184.898L126.876 199.427L127.193 189.824L124.59 168.983ZM95.4001 168.99L92.9002 189.667L93.1056 199.416L62.5719 184.898L95.4001 168.99Z" fill="#D5BFB2"/>
<path d="M85.9435 122.474L94.5012 140.525L65.3658 131.958L85.9435 122.474ZM134.056 122.476L154.73 131.958L125.5 140.522L134.056 122.476Z" fill="#233447"/>
<path d="M70.4911 149.066L65.7817 187.913L40.5393 149.915L70.4911 149.066ZM149.511 149.067L179.463 149.915L154.126 187.915L149.511 149.067ZM173.69 110.734L151.892 133.03L135.085 125.322L127.039 142.3L121.764 113.105L173.69 110.734ZM46.2988 110.734L98.2352 113.105L92.9594 142.3L84.9114 125.325L68.194 133.031L46.2988 110.734Z" fill="#CC6228"/>
<path d="M44.8302 106.158L69.4925 131.275L70.3467 156.071L44.8302 106.158ZM175.195 106.113L149.632 156.115L150.594 131.275L175.195 106.113ZM97.0295 107.688L98.022 113.959L100.475 129.579L98.8977 177.556L91.4427 139.015L91.4401 138.617L97.0295 107.688ZM122.958 107.601L128.562 138.617L128.559 139.015L121.085 177.653L119.623 129.295L122.958 107.601Z" fill="#E27525"/>
<path d="M152.787 130.277L151.952 151.821L125.935 172.164L120.676 168.435L126.571 137.959L152.787 130.277ZM67.3037 130.277L93.4278 137.959L99.3231 168.435L94.0638 172.164L68.0462 151.819L67.3037 130.277Z" fill="#F5841F"/>
<path d="M57.5936 180.14L90.8789 195.969L90.738 189.209L93.5232 186.755H126.466L129.352 189.201L129.139 195.955L162.214 180.18L146.12 193.528L126.659 206.942H93.2559L73.8083 193.473L57.5936 180.14Z" fill="#C0AC9D"/>
<path d="M122.207 166.876L126.912 170.213L129.67 192.296L125.679 188.914H94.3327L90.4174 192.364L93.0849 170.214L97.7926 166.876H122.207Z" fill="#161616"/>
<path d="M208.668 1.94063L220 36.0585L212.923 70.5559L217.962 74.457L211.143 79.6786L216.269 83.6513L209.482 89.8535L213.648 92.8818L202.592 105.842L157.242 92.5894L156.85 92.3781L124.17 64.7108L208.668 1.94063ZM11.3317 1.94063L95.8306 64.7108L63.1503 92.3781L62.7576 92.5894L17.4084 105.842L6.35164 92.8818L10.5145 89.8561L3.73227 83.6513L8.84727 79.6829L1.92586 74.4467L7.15516 70.543L0 36.0603L11.3317 1.94063Z" fill="#763E1A"/>
<path d="M155.024 89.6914L203.075 103.732L218.685 152.02H177.5L149.124 152.379L169.761 112.007L155.024 89.6914ZM64.9756 89.6914L50.2365 112.007L70.8761 152.379L42.5124 152.02H1.40164L16.9245 103.733L64.9756 89.6914ZM140.408 28.5591L126.968 64.9902L124.116 114.204L123.025 129.63L122.938 169.036H97.0612L96.977 129.704L95.8822 114.192L93.0291 64.9902L79.591 28.5591H140.408Z" fill="#F5841F"/>
</svg>
