<svg width="122" height="68" viewBox="0 0 122 68" fill="none" xmlns="http://www.w3.org/2000/svg">
<path d="M75.6394 61.4253C87.1558 61.776 95.9627 61.5422 104.713 58.8537C107.874 57.9186 110.979 56.1652 114.028 54.4118C115.382 53.5936 116.681 51.9571 117.81 50.2037C119.729 47.2814 119.842 44.1253 118.148 40.7355C117.076 38.5145 115.777 36.5273 114.479 34.7739C111.035 30.3321 107.253 27.2929 103.471 24.4874C94.0995 17.5909 84.3896 13.149 74.5669 9.99285C63.389 6.48611 52.2114 4.96652 40.9207 5.66787C32.6222 6.13544 24.3235 7.65506 16.1379 10.3436C11.5087 11.8632 6.87954 13.4996 2.25039 15.0192C2.19394 15.0192 2.13749 15.0192 2.08103 15.1361C0.89552 15.4868 0.161629 14.7854 0.0487228 13.2658C-0.17709 11.7462 0.38744 10.8111 1.62941 10.2266C9.53285 7.07057 17.4927 3.91449 25.5091 2.278C34.1464 0.524623 42.7836 -0.410513 51.4774 0.173947C66.2119 1.10908 80.7203 5.31719 95.0029 13.2658C100.648 16.422 106.18 20.1625 111.487 25.4226C113.915 27.8773 116.229 30.9165 118.487 33.9557C119.447 35.2416 120.294 37.3456 120.971 39.3327C122.495 43.7746 122.326 48.801 120.463 52.6584C119.391 54.8794 118.036 56.7497 116.624 58.1524C113.35 61.5423 109.793 62.9449 106.237 64.1138C94.7204 67.5037 83.204 67.7375 71.6313 66.5686C66.9455 66.101 62.2601 65.6334 57.5744 64.9321C51.5341 63.997 45.4371 62.9449 39.3964 61.5422C33.6949 60.2564 28.0494 58.6199 22.4041 56.5159C19.2428 55.3469 16.0814 53.3598 13.0329 51.3726C11.5651 50.4375 10.1538 48.6841 8.91184 46.8138C6.20211 42.4889 6.03274 36.5273 8.34732 31.2672C9.70219 28.1111 11.4523 26.2408 13.3152 24.6044C17.4363 20.9807 21.7831 18.8767 26.1865 17.2401C32.227 14.9024 38.3239 14.0841 44.5337 14.7854C46.058 14.9024 46.7353 15.8375 46.6789 17.5909C46.6226 19.1105 45.945 19.8118 44.5337 19.9287C40.8644 20.1625 37.1948 20.1625 33.5255 20.7469C27.2591 21.7989 21.1057 24.2537 15.2346 28.9294C13.8797 29.9814 12.5813 31.3841 11.3958 33.0206C8.68604 36.9949 8.79896 40.8523 11.6781 44.0084C13.0329 45.528 14.5007 46.697 16.0249 47.6321C20.7105 50.6713 25.5091 52.4247 30.364 53.5936C39.5658 55.6976 48.8242 57.8017 58.0259 59.3213C64.7439 60.6071 71.5749 60.9578 75.6394 61.4253Z" fill="white"/>
</svg>
