<svg width="308" height="84" viewBox="0 0 308 84" fill="none" xmlns="http://www.w3.org/2000/svg">
<path d="M190.958 76.2242C220.033 76.6549 242.266 76.3677 264.357 73.0662C272.338 71.9179 280.176 69.7648 287.873 67.6117C291.293 66.6068 294.571 64.5973 297.422 62.4442C302.267 58.8555 302.552 54.9799 298.276 50.8172C295.569 48.0899 292.29 45.6497 289.013 43.4965C280.319 38.0419 270.77 34.3098 261.221 30.8648C237.563 22.3958 213.049 16.9413 188.251 13.0656C160.031 8.75932 131.812 6.89327 103.308 7.75453C82.3575 8.32869 61.4069 10.1948 40.7415 13.4962C29.0547 15.3623 17.368 17.3718 5.68132 19.2379C5.53879 19.2379 5.39628 19.2379 5.25375 19.3815C2.26082 19.812 0.408047 18.9508 0.123005 17.0848C-0.447079 15.2187 0.978126 14.0704 4.11359 13.3526C24.0665 9.47703 44.1619 5.60139 64.3999 3.5918C86.2057 1.43867 108.011 0.290328 129.959 1.00804C167.158 2.15638 203.786 7.3239 239.843 17.0848C254.095 20.9604 268.062 25.5538 281.459 32.0132C287.587 35.0276 293.431 38.7597 299.132 42.4918C301.555 44.0708 303.692 46.6545 305.403 49.0947C309.25 54.5493 308.823 60.7216 304.12 65.4585C301.412 68.1858 297.992 70.4825 294.429 72.205C286.162 76.3678 277.183 78.0902 268.204 79.5256C239.13 83.6884 210.056 83.9755 180.84 82.54C169.01 81.9659 157.181 81.3917 145.352 80.5305C130.102 79.3821 114.71 78.0902 99.4597 76.3677C85.0658 74.7888 70.8133 72.7792 56.5613 70.1955C48.5801 68.76 40.5989 66.3198 32.9028 63.8796C29.1972 62.7312 25.6342 60.5781 22.4987 58.2814C15.6578 52.9704 15.2302 45.6497 21.0736 39.1903C24.494 35.3146 28.9122 33.0179 33.6154 31.0084C44.0194 26.5585 54.9935 23.9748 66.1101 21.9652C81.3599 19.0944 96.7522 18.0896 112.429 18.9508C116.278 19.0944 117.987 20.2427 117.845 22.3958C117.703 24.2619 115.992 25.1231 112.429 25.2667C103.166 25.5538 93.9015 25.5538 84.6381 26.2714C68.818 27.5633 53.2832 30.5777 38.4611 36.3195C35.0406 37.6114 31.7626 39.3338 28.7697 41.3434C21.9287 46.2239 22.2137 50.9607 29.4823 54.8363C32.9028 56.7024 36.6083 58.1379 40.4564 59.2862C52.2856 63.0183 64.3999 65.1714 76.6567 66.6068C99.8874 69.1906 123.261 71.7743 146.492 73.6404C163.452 75.2194 180.697 75.65 190.958 76.2242Z" fill="white"/>
</svg>
