<svg width="42" height="44" viewBox="0 0 42 44" fill="none" xmlns="http://www.w3.org/2000/svg">
<path fill-rule="evenodd" clip-rule="evenodd" d="M16.6101 8.80837C16.4903 8.09767 16.4001 7.39503 16.3418 6.69231C16.254 5.63823 16.3083 4.5761 16.2771 3.52202C16.2635 3.07484 16.21 1.90898 16.2316 1.74129C16.4272 0.279956 17.6067 0.0563372 17.9517 0.0164101C18.1185 -0.00754617 19.8322 -0.199111 20.2019 1.70142C20.6555 4.02518 20.8009 6.36488 20.6403 8.65669C21.0149 10.6051 21.6553 12.5456 22.501 14.3023C25.866 21.2896 32.2783 21.9684 39.2256 21.9045C40.2941 21.8885 41.1813 22.727 41.2372 23.789C41.2931 24.8591 40.4977 25.7854 39.4341 25.8812C35.5508 26.2565 28.6609 29.3709 26.2788 32.613C25.7805 33.2917 25.4907 34.9288 25.1074 36.5338C24.5724 38.7618 23.9359 40.9657 23.2228 41.892C23.1158 42.0358 21.815 43.5051 21.4269 43.7207C20.4942 44.2318 19.7476 43.9363 19.3236 43.6648C18.8995 43.3933 18.4196 42.8582 18.228 41.9719C18.0275 41.0456 18.1968 39.145 18.1657 38.7377C18.0523 37.2604 17.7568 34.3617 17.1539 31.8703C16.8289 30.5287 16.4823 29.291 15.909 28.6761C13.7865 26.4003 10.3927 26.7357 7.53468 27.111C7.20648 27.1509 6.87828 27.1989 6.55088 27.2388C5.3874 27.5822 4.15203 27.8377 2.84641 27.9894C0.874807 28.221 0.55062 26.4083 0.533053 26.2885C0.49632 26.025 0.359754 24.6675 1.84584 24.1245C2.00795 24.0686 3.20417 23.805 3.66493 23.7012C4.30696 23.5575 4.95616 23.4457 5.60777 23.3419C12.3387 21.2497 15.9944 15.3724 16.6101 8.80837ZM18.9203 16.0672C21.4613 21.3216 25.3174 23.8609 29.8883 25.0108H29.8875C27.0335 26.5041 24.4374 28.3727 23.0615 30.2493C22.5393 30.96 22.0602 32.3894 21.6281 33.9944C21.3942 32.5012 21.078 30.912 20.6603 29.5545C20.1852 28.0053 19.5455 26.7198 18.8316 25.9531C17.4534 24.4758 15.7237 23.6533 13.8639 23.2461C16.0902 21.2737 17.7784 18.8142 18.9203 16.0672Z" fill="white"/>
</svg>
