<svg width="43" height="41" viewBox="0 0 43 41" fill="none" xmlns="http://www.w3.org/2000/svg">
<path fill-rule="evenodd" clip-rule="evenodd" d="M19.1389 15.0538C15.1474 11.7516 11.9131 7.8191 9.48267 3.23742C8.99658 2.32484 7.86553 1.97674 6.94945 2.46595C6.04271 2.95517 5.69678 4.09356 6.18286 5.01554C8.85634 10.03 12.3899 14.3389 16.7647 17.9609C17.5592 18.6195 18.7463 18.5066 19.4007 17.7069C20.055 16.8978 19.9335 15.7124 19.1389 15.0538Z" fill="white"/>
<path fill-rule="evenodd" clip-rule="evenodd" d="M17.0105 2.19316C17.2161 5.99399 17.4031 9.79481 17.6368 13.5956C17.7023 14.6305 18.5903 15.4208 19.6186 15.3549C20.6468 15.2891 21.432 14.3953 21.3666 13.3604C21.1329 9.56902 20.9459 5.77762 20.7403 1.9768C20.6842 0.944743 19.7961 0.149764 18.7679 0.208094C17.7396 0.266423 16.945 1.15546 17.0105 2.19316Z" fill="white"/>
<path fill-rule="evenodd" clip-rule="evenodd" d="M30.8883 2.96468C28.4952 6.59616 25.7845 9.94536 23.0549 13.3322C22.4006 14.1413 22.522 15.3268 23.3259 15.9759C24.1298 16.6345 25.3077 16.5121 25.9527 15.7031C28.7571 12.2315 31.5427 8.77877 34.0105 5.04381C34.5808 4.17827 34.3377 3.01172 33.4776 2.43783C32.627 1.86395 31.4585 2.09914 30.8883 2.96468Z" fill="white"/>
<path fill-rule="evenodd" clip-rule="evenodd" d="M40.1581 16.4651C33.6707 16.7567 26.7814 16.7661 20.294 16.3522C19.2657 16.2957 18.3777 17.0766 18.3123 18.1209C18.2468 19.1558 19.032 20.0495 20.0603 20.1154C26.6786 20.5293 33.7082 20.5199 40.3264 20.2283C41.3547 20.1812 42.1585 19.2969 42.1118 18.262C42.065 17.2272 41.1864 16.418 40.1581 16.4651Z" fill="white"/>
<path fill-rule="evenodd" clip-rule="evenodd" d="M16.7598 17.6598C20.7606 22.5896 24.9018 27.4253 28.6128 32.5809C29.2204 33.4182 30.389 33.6063 31.2303 32.9948C32.0622 32.3833 32.2491 31.2072 31.6415 30.3699C27.8837 25.1579 23.6959 20.2658 19.6483 15.2795C18.994 14.4799 17.8161 14.3576 17.0215 15.0161C16.2176 15.6747 16.1054 16.8601 16.7598 17.6598Z" fill="white"/>
<path fill-rule="evenodd" clip-rule="evenodd" d="M17.9714 19.0902C19.0183 24.227 19.3081 29.138 19.3829 34.3406C19.3922 35.3755 20.2429 36.2033 21.2712 36.1939C22.3088 36.1751 23.1314 35.3284 23.1127 34.2841C23.0379 28.8369 22.7294 23.7096 21.6357 18.3282C21.4207 17.3121 20.4392 16.6535 19.4203 16.8699C18.4107 17.0769 17.7564 18.0742 17.9714 19.0902Z" fill="white"/>
<path fill-rule="evenodd" clip-rule="evenodd" d="M18.1401 18.6765C15.1114 24.7728 13.5503 31.5466 10.3066 37.5113C9.81121 38.4144 10.1477 39.5622 11.0544 40.0608C11.9611 40.5594 13.0923 40.2207 13.5877 39.3175C16.8501 33.3152 18.4299 26.5039 21.4866 20.3605C21.9446 19.4291 21.5707 18.3001 20.6546 17.8297C19.7292 17.3687 18.6075 17.7451 18.1401 18.6765Z" fill="white"/>
<path fill-rule="evenodd" clip-rule="evenodd" d="M19.8069 17.293C13.7776 18.3655 7.75758 18.8547 1.69084 19.5791C0.662585 19.7014 -0.0665451 20.6328 0.0549765 21.6677C0.176498 22.7026 1.10202 23.4364 2.13028 23.3141C8.26245 22.5897 14.3572 22.0816 20.4613 20.9997C21.4709 20.8116 22.1533 19.8331 21.9757 18.8171C21.7887 17.7916 20.8258 17.1048 19.8069 17.293Z" fill="white"/>
<path fill-rule="evenodd" clip-rule="evenodd" d="M24.0023 14.4335C22.7591 14.377 21.5812 14.2923 20.366 14.1136C19.3377 13.963 18.3936 14.6781 18.244 15.7035C18.0945 16.729 18.8048 17.6886 19.8238 17.8392C21.1698 18.0367 22.4692 18.1308 23.834 18.1872C24.8623 18.2343 25.7409 17.4346 25.7783 16.3903C25.8251 15.3554 25.0306 14.4805 24.0023 14.4335Z" fill="white"/>
</svg>
